<?xml version="1.0" standalone="no"?>
<!DOCTYPE svg PUBLIC "-//W3C//DTD SVG 20010904//EN"
 "http://www.w3.org/TR/2001/REC-SVG-20010904/DTD/svg10.dtd">
<svg version="1.0" xmlns="http://www.w3.org/2000/svg"
 width="260.000000pt" height="260.000000pt" viewBox="0 0 260.000000 260.000000"
 preserveAspectRatio="xMidYMid meet">
<metadata>
Created by potrace 1.14, written by Peter Selinger 2001-2017
</metadata>
<g transform="translate(0.000000,260.000000) scale(0.100000,-0.100000)"
fill="#000000" stroke="none">
<path d="M254 1162 c-30 -20 -22 -45 50 -155 104 -160 99 -143 60 -198 -68
-94 -124 -211 -161 -334 -34 -113 -49 -345 -30 -437 8 -36 10 -38 48 -38 l40
0 -7 48 c-14 85 -10 207 11 332 19 111 92 275 172 388 29 40 53 81 53 90 0 9
-23 51 -50 92 -27 41 -50 78 -50 81 0 4 28 -4 63 -16 55 -19 133 -41 177 -50
8 -2 35 -8 60 -15 25 -7 56 -14 70 -15 14 -2 39 -5 55 -8 28 -6 88 -15 145
-22 159 -22 498 -22 675 0 22 3 60 7 84 10 36 5 187 35 251 49 80 19 201 55
223 67 27 14 21 0 -33 -81 -27 -41 -50 -83 -50 -92 0 -10 16 -38 35 -64 103
-135 181 -323 202 -489 10 -79 7 -228 -5 -262 -13 -38 -9 -43 39 -43 49 0 52
10 54 174 2 231 -60 432 -191 625 -27 39 -41 68 -36 75 35 46 162 247 162 255
0 6 -10 17 -23 26 -21 14 -30 12 -112 -21 -124 -48 -238 -82 -405 -118 -8 -2
-35 -7 -60 -11 -25 -4 -53 -9 -62 -10 -147 -28 -686 -27 -819 1 -13 2 -40 6
-59 9 -38 4 -72 11 -98 19 -9 3 -28 7 -42 10 -77 15 -272 77 -374 120 -43 18
-47 19 -62 8z"/>
<path d="M1641 787 c-80 -10 -204 -67 -285 -130 l-59 -46 -51 44 c-135 118
-337 164 -486 111 -154 -57 -270 -197 -321 -393 -23 -86 -33 -284 -17 -341 8
-29 12 -32 48 -32 l40 0 -7 43 c-10 54 -10 176 1 247 9 65 60 203 81 220 8 7
15 18 15 25 0 10 72 82 122 121 23 18 58 35 58 28 0 -3 7 0 17 7 11 10 44 14
107 14 77 0 100 -4 148 -27 71 -33 130 -73 186 -127 24 -23 51 -41 60 -41 9 0
37 18 62 41 64 58 139 107 206 134 83 34 196 30 274 -9 136 -68 235 -222 256
-397 9 -75 9 -197 0 -242 l-7 -38 42 3 c36 3 44 7 50 29 8 31 4 226 -5 284
-24 138 -87 262 -183 352 -100 96 -222 137 -352 120z"/>
<path d="M780 368 c-126 -62 -130 -243 -6 -302 106 -50 236 32 236 151 0 39
-35 106 -71 132 -36 27 -122 37 -159 19z m116 -92 c60 -51 15 -156 -60 -142
-44 8 -78 50 -72 88 11 71 80 99 132 54z"/>
<path d="M1704 372 c-89 -29 -138 -144 -96 -227 63 -127 241 -124 298 5 14 30
12 104 -3 141 -18 42 -80 82 -132 85 -25 2 -56 0 -67 -4z m109 -101 c10 -10
20 -32 23 -50 4 -25 0 -37 -25 -61 -39 -39 -74 -39 -111 0 -35 38 -33 84 5
118 30 26 78 23 108 -7z"/>
<path d="M1235 106 c-36 -18 -66 -44 -82 -74 -18 -31 -18 -32 30 -32 30 0 52
7 67 20 13 11 30 20 39 20 9 0 34 -9 56 -20 36 -18 115 -28 115 -14 0 17 -36
63 -65 82 -41 29 -120 37 -160 18z"/>
</g>
</svg>
